<svg width="48" height="48" viewBox="0 0 48 48" fill="none" xmlns="http://www.w3.org/2000/svg">
  <rect width="48" height="48" rx="11" fill="#FDEBE0"/>
  <g transform="translate(4 8)">
    <path d="M3 5.5C7.8 4 12.4 4.3 17 6.6c1.1.5 1.8 1.6 1.8 2.8V28c0 .9-1 1.5-1.9 1.1-4.3-2.1-8.6-2.4-13.1-1.1C2.9 28.3 2 27.6 2 26.6V7.4C2 6.5 2.2 5.8 3 5.5Z" fill="#D66C44"/>
    <path d="M37 5.5C32.2 4 27.6 4.3 23 6.6c-1.1.5-1.8 1.6-1.8 2.8V28c0 .9 1 1.5 1.9 1.1 4.3-2.1 8.6-2.4 13.1-1.1.9.3 1.8-.4 1.8-1.4V7.4C38 6.5 37.8 5.8 37 5.5Z" fill="#B35029"/>
    <path d="M6.5 10.5c2.9 0 5.7.6 8.3 1.8M6.5 15c2.9 0 5.7.6 8.3 1.8M33.5 10.5c-2.9 0-5.7.6-8.3 1.8M33.5 15c-2.9 0-5.7.6-8.3 1.8" stroke="#FFFFFF" stroke-width="1.1" stroke-linecap="round" opacity="0.5"/>
  </g>
</svg>
